<svg width="2000" height="2000" viewBox="0 0 2000 2000" fill="none" xmlns="http://www.w3.org/2000/svg">
<path d="M1676.27 1109.01C1654.78 1109.01 1636.2 1104.56 1620.53 1095.66C1604.85 1086.56 1592.75 1073.79 1584.24 1057.34C1575.72 1040.69 1571.46 1021.05 1571.46 998.403C1571.46 975.952 1575.92 956.404 1584.82 939.759C1593.72 923.114 1606.21 910.244 1622.27 901.147C1638.33 891.857 1657.01 887.212 1678.3 887.212C1696.3 887.212 1712.27 890.502 1726.2 897.082C1740.33 903.469 1751.85 912.566 1760.75 924.372C1769.65 936.179 1775.17 950.114 1777.3 966.178H1727.65C1724.56 955.34 1718.56 947.017 1709.66 941.211C1700.95 935.404 1690.11 932.501 1677.14 932.501C1665.53 932.501 1655.46 935.114 1646.95 940.34C1638.62 945.566 1632.24 953.114 1627.79 962.985C1623.33 972.662 1621.11 984.371 1621.11 998.113C1621.11 1011.47 1623.33 1023.08 1627.79 1032.95C1632.43 1042.82 1638.91 1050.47 1647.24 1055.89C1655.75 1061.11 1665.72 1063.72 1677.14 1063.72C1690.3 1063.72 1701.43 1060.73 1710.53 1054.73C1719.82 1048.53 1725.91 1040.11 1728.82 1029.47H1777.59C1775.07 1045.34 1769.17 1059.27 1759.88 1071.27C1750.78 1083.27 1739.07 1092.56 1724.75 1099.14C1710.43 1105.72 1694.27 1109.01 1676.27 1109.01Z" fill="#F2F2F2"/>
<path d="M1556.5 1105.53H1420.05V890.695H1556.5V934.243H1454.02L1467.08 922.05V976.339H1546.34V1017.56H1467.08V1074.18L1454.02 1061.98H1556.5V1105.53Z" fill="#F2F2F2"/>
<path d="M1342.52 913.34V1105.53H1295.48V913.34H1342.52ZM1234.52 934.243V890.695H1403.48V934.243H1234.52Z" fill="#F2F2F2"/>
<path d="M1140.74 890.695V1105.53H1093.7V890.695H1140.74ZM1230.44 934.243H1098.06V890.695H1230.44V934.243ZM1216.22 1021.63H1096.9V979.242H1216.22V1021.63Z" fill="#F2F2F2"/>
<path d="M923.54 1105.53H877.089V890.695H923.54L1028.63 1049.21H1014.12V890.695H1060.57V1105.53H1014.12L909.024 947.307H923.54V1105.53Z" fill="#F2F2F2"/>
<path d="M782.334 1105.53H737.915L821.527 891.276H866.236L782.334 1105.53Z" fill="#F2F2F2"/>
<path d="M583.067 953.114C583.067 940.146 586.454 928.727 593.228 918.856C600.002 908.792 609.293 900.953 621.099 895.341C633.099 889.534 646.744 886.631 662.034 886.631C677.517 886.631 690.872 889.341 702.098 894.76C713.323 900.179 721.936 907.824 727.936 917.695C734.129 927.566 737.226 939.275 737.226 952.823H690.485C690.485 945.275 687.872 939.372 682.646 935.114C677.421 930.663 670.356 928.437 661.453 928.437C651.969 928.437 644.324 930.469 638.518 934.533C632.905 938.598 630.099 944.211 630.099 951.372C630.099 957.952 631.841 962.985 635.325 966.468C638.808 969.952 644.324 972.468 651.873 974.017L684.098 980.694C703.259 984.565 717.484 991.339 726.775 1001.02C736.065 1010.5 740.71 1023.76 740.71 1040.79C740.71 1054.53 737.323 1066.63 730.549 1077.08C723.775 1087.34 714.194 1095.27 701.807 1100.89C689.614 1106.5 675.292 1109.3 658.84 1109.3C642.97 1109.3 629.034 1106.6 617.034 1101.18C605.228 1095.76 596.035 1088.11 589.454 1078.24C583.067 1068.18 579.874 1056.47 579.874 1043.11H626.615C626.615 1050.85 629.421 1056.85 635.034 1061.11C640.647 1065.37 648.679 1067.5 659.131 1067.5C669.776 1067.5 678.195 1065.56 684.388 1061.69C690.582 1057.63 693.678 1052.21 693.678 1045.43C693.678 1039.44 692.13 1034.79 689.033 1031.5C686.13 1028.21 681.098 1025.89 673.937 1024.53L641.131 1017.85C621.97 1013.98 607.454 1006.63 597.583 995.791C587.906 984.952 583.067 970.726 583.067 953.114Z" fill="#F2F2F2"/>
<path d="M568.104 1105.53H431.655V890.695H568.104V934.243H465.622L478.687 922.05V976.339H557.943V1017.56H478.687V1074.18L465.622 1061.98H568.104V1105.53Z" fill="#F2F2F2"/>
<path d="M306.603 1105.53H222.41V890.695H303.699C324.796 890.695 343.279 895.244 359.15 904.34C375.214 913.437 387.795 926.114 396.892 942.372C405.988 958.63 410.536 977.404 410.536 998.694C410.536 1019.6 406.085 1038.08 397.182 1054.14C388.472 1070.21 376.279 1082.79 360.602 1091.89C345.118 1100.98 327.118 1105.53 306.603 1105.53ZM269.442 912.179V1084.63L247.087 1061.98H301.958C314.344 1061.98 324.893 1059.47 333.602 1054.43C342.505 1049.4 349.279 1042.14 353.924 1032.66C358.57 1023.18 360.892 1011.85 360.892 998.694C360.892 985.145 358.376 973.63 353.344 964.146C348.505 954.469 341.441 947.114 332.151 942.082C323.054 936.856 312.022 934.243 299.054 934.243H247.087L269.442 912.179Z" fill="#F2F2F2"/>
</svg>
