<svg width="180" height="233" viewBox="0 0 180 233" fill="none" xmlns="http://www.w3.org/2000/svg">
<path opacity="0.05" fill-rule="evenodd" clip-rule="evenodd" d="M136.921 0C143.549 0 148.921 5.37258 148.921 12V55.6443C148.921 62.2717 143.549 67.6443 136.921 67.6443H113.262C104.023 67.6443 98.2494 77.6472 102.871 85.6472L115.255 107.083C117.973 111.787 117.191 117.73 113.35 121.572L71.2038 163.718C68.9533 165.968 67.689 169.021 67.689 172.203L67.6897 220.999C67.6898 227.626 62.3173 232.999 55.6899 232.999L12.0018 233C5.37444 233 0.00178673 227.627 0.00166105 221L9.43067e-05 138.384C3.39254e-05 135.2 1.26534 132.147 3.51743 129.896L26.6443 106.784C30.4878 102.943 31.2705 96.998 28.5522 92.2929L8.01015 56.7361C5.86431 53.0218 5.8643 48.4446 8.0101 44.7303L30.3869 5.99714C32.5309 2.28594 36.4916 0 40.7776 0H136.921ZM97.3569 193.603C93.5155 197.444 92.734 203.387 95.4515 208.091L106.377 227.002C108.521 230.713 112.481 232.999 116.767 232.999H167.209C176.448 232.999 182.221 222.996 177.599 214.996L148.204 164.115C144.257 157.284 134.906 156.054 129.328 161.632L97.3569 193.603Z" fill="#F2F2F2"/>
</svg>
