<svg width="144" height="135" viewBox="0 0 144 135" fill="none" xmlns="http://www.w3.org/2000/svg">
<path d="M94 12C94 5.37258 99.3726 -3.90145e-06 106 -3.32207e-06L132 -1.04907e-06C138.627 -4.69686e-07 144 5.37258 144 12L144 63C144 69.6274 138.627 75 132 75L106 75C99.3726 75 94 69.6274 94 63L94 12ZM34 62C34 55.3726 28.6274 50 22 50L12 50C5.37259 50 7.90062e-06 44.6274 8.48001e-06 38L1.0753e-05 12C1.13324e-05 5.37257 5.37259 -1.21192e-05 12 -1.15398e-05L38 -9.26681e-06C44.6274 -8.68743e-06 50 5.37258 50 12L50 12.5C50 19.1274 55.3726 24.5 62 24.5L72 24.5C78.6274 24.5 84 29.8726 84 36.5L84 62.5C84 69.1274 78.6274 74.5 72 74.5L46 74.5C39.3726 74.5 34 69.1274 34 62.5L34 62ZM44.5 134.75C44.5 134.612 44.3881 134.5 44.25 134.5L12 134.5C5.37258 134.5 5.13397e-07 129.127 1.09278e-06 122.5L3.36578e-06 96.5C3.94516e-06 89.8726 5.37259 84.5 12 84.5L49.75 84.5C49.8881 84.5 50 84.6119 50 84.75C50 84.8881 50.1119 85 50.25 85L82.5 85C89.1274 85 94.5 90.3726 94.5 97L94.5 123C94.5 129.627 89.1274 135 82.5 135L44.75 135C44.6119 135 44.5 134.888 44.5 134.75Z" fill="#141414"/>
</svg>
