<svg width="144" height="135" viewBox="0 0 144 135" fill="none" xmlns="http://www.w3.org/2000/svg">
<path d="M50 123C50 129.627 44.6274 135 38 135H12C5.37258 135 0 129.627 0 123V97C0 90.3726 5.37258 85 12 85H38C44.6274 85 50 90.3726 50 97V123ZM144 38C144 44.6274 138.627 50 132 50H122C115.373 50 110 55.3726 110 62V73C110 79.6274 115.373 85 122 85H132C138.627 85 144 90.3726 144 97V123C144 129.627 138.627 135 132 135H106C99.3726 135 94 129.627 94 123V97C94 90.3726 88.6274 85 82 85H72C65.3726 85 60 79.6274 60 73V47C60 40.3726 65.3726 35 72 35H82C88.6274 35 94 29.6274 94 23V12C94 5.37258 99.3726 0 106 0H132C138.627 0 144 5.37258 144 12V38ZM50 63C50 69.6274 44.6274 75 38 75H12C5.37258 75 0 69.6274 0 63V12C0 5.37259 5.37258 0 12 0H38C44.6274 0 50 5.37258 50 12V63Z" fill="#141414"/>
</svg>
