<svg width="135" height="135" viewBox="0 0 135 135" fill="none" xmlns="http://www.w3.org/2000/svg">
<path d="M0 93C0 99.6274 5.37258 105 12 105H13C19.6274 105 25 110.373 25 117V123C25 129.627 30.3726 135 37 135H63C69.6274 135 75 129.627 75 123V97C75 90.3726 69.6274 85 63 85H62C55.3726 85 50 79.6274 50 73V67C50 60.3726 44.6274 55 38 55H12C5.37258 55 0 60.3726 0 67V93ZM55 38C55 44.6274 60.3726 50 67 50H73C79.6274 50 85 55.3726 85 62V63C85 69.6274 90.3726 75 97 75H123C129.627 75 135 69.6274 135 63V37C135 30.3726 129.627 25 123 25H117C110.373 25 105 19.6274 105 13V12C105 5.37258 99.6274 0 93 0H67C60.3726 0 55 5.37258 55 12V38Z" fill="#141414"/>
</svg>
