<svg width="135" height="135" viewBox="0 0 135 135" fill="none" xmlns="http://www.w3.org/2000/svg">
<path d="M50 123C50 129.627 44.6274 135 38 135H12C5.37258 135 0 129.627 0 123V97C0 90.3726 5.37258 85 12 85H38C44.6274 85 50 90.3726 50 97V123ZM135 93C135 99.6274 129.627 105 123 105H122C115.373 105 110 110.373 110 117V123C110 129.627 104.627 135 98 135H72C65.3726 135 60 129.627 60 123V97C60 90.3726 65.3726 85 72 85H73C79.6274 85 85 79.6274 85 73V67C85 60.3726 90.3726 55 97 55H123C129.627 55 135 60.3726 135 67V93ZM80 38C80 44.6274 74.6274 50 68 50H62C55.3726 50 50 55.3726 50 62V63C50 69.6274 44.6274 75 38 75H12C5.37258 75 0 69.6274 0 63V37C0 30.3726 5.37258 25 12 25H18C24.6274 25 30 19.6274 30 13V12C30 5.37258 35.3726 0 42 0H68C74.6274 0 80 5.37258 80 12V38Z" fill="#141414"/>
</svg>
