<svg width="197" height="160" viewBox="0 0 197 160" fill="none" xmlns="http://www.w3.org/2000/svg">
<path d="M13.6912 82.6424C17.7781 79.8464 24.0931 77.08 32.4765 74.6478C42.4736 71.7475 54.8947 69.4718 68.8527 68.1117C69.1872 65.6235 69.571 63.1531 70.0043 60.7057C54.6669 62.0865 40.8834 64.5426 29.7159 67.7826C20.8252 70.362 13.5018 73.4634 8.36555 76.9774C3.28001 80.4568 0 84.5865 0 89.2763C9.57921e-05 93.2957 2.41848 96.9052 6.27416 100.022C10.1456 103.152 15.6795 105.969 22.4509 108.418C34.3295 112.714 50.289 115.972 68.4949 117.707C68.2101 115.254 67.9703 112.795 67.7753 110.334C54.2482 108.962 42.2099 106.729 32.4765 103.905C24.0931 101.473 17.7781 98.7052 13.6912 95.9091C9.55094 93.0764 8.48771 90.7987 8.4876 89.2763C8.4876 87.7538 9.55057 85.4753 13.6912 82.6424Z" fill="#F47424"/>
<path d="M88.4977 66.86C91.8674 66.7534 95.2933 66.6985 98.7658 66.6985C102.552 66.6985 106.28 66.7638 109.937 66.8902C109.557 64.4049 109.132 61.9722 108.661 59.59C105.406 59.4938 102.105 59.4445 98.7658 59.4445C95.8751 59.4445 93.0117 59.4814 90.1809 59.5538C89.5745 61.9378 89.0137 64.3756 88.4977 66.86Z" fill="#F47424"/>
<path d="M190.702 100.093C194.577 96.9544 197 93.3202 197 89.2763C197 84.5948 193.764 80.4651 188.723 76.9815C183.636 73.4655 176.377 70.3635 167.552 67.7836C156.76 64.6288 143.488 62.2171 128.688 60.8176C128.817 61.8039 128.94 62.7954 129.056 63.792C129.225 65.25 129.379 66.7199 129.518 68.2008C143.055 69.5697 155.075 71.8086 164.774 74.6437C173.086 77.0735 179.33 79.8357 183.366 82.6249C187.447 85.4456 188.512 87.7268 188.512 89.2763C188.512 90.8258 187.447 93.1061 183.366 95.9266C179.33 98.7159 173.086 101.479 164.774 103.909C154.961 106.777 142.766 109.037 129.017 110.402C128.725 112.86 128.386 115.327 127.996 117.8C146.385 116.105 162.473 112.85 174.434 108.535C181.248 106.077 186.812 103.244 190.702 100.093Z" fill="#F47424"/>
<path d="M82.8814 159.558C62.2261 105.319 69.6404 31.5957 103.005 0C123.127 26.8564 137.425 92.6808 114.124 153.239C119.419 95.8404 117.301 54.7659 100.884 23.6968C79.1717 54.2393 75.9943 114.798 82.8814 159.558Z" fill="#F47424"/>
</svg>
