<svg width="195" height="187" viewBox="0 0 195 187" fill="none" xmlns="http://www.w3.org/2000/svg">
<path d="M19.5499 127.74C19.5498 125.69 17.8971 124.027 15.8598 124.027C13.8226 124.028 12.1712 125.69 12.171 127.74C12.171 129.791 13.8225 131.454 15.8598 131.454C16.4315 131.454 16.966 131.325 17.4419 131.097C18.6938 130.498 19.5499 129.216 19.5499 127.74ZM188.531 67.8025C188.531 65.752 186.878 64.0898 184.841 64.0898C182.803 64.0899 181.152 65.7521 181.152 67.8025C181.152 69.8531 182.803 71.5165 184.841 71.5167C185.345 71.5167 185.819 71.4163 186.249 71.2374C187.593 70.678 188.531 69.3465 188.531 67.8025ZM194.185 67.8025C194.185 70.8535 192.74 73.5599 190.509 75.2767C191.665 81.1673 192.272 87.2548 192.272 93.4819C192.272 145.11 150.689 186.963 99.3942 186.964C63.7247 186.964 32.7588 166.723 17.2003 137.044C16.7618 137.108 16.3143 137.146 15.8598 137.146C10.6995 137.146 6.51637 132.934 6.51637 127.74C6.51655 122.546 10.6996 118.336 15.8598 118.336C21.0201 118.336 25.2044 122.546 25.2046 127.74C25.2046 130.428 24.0829 132.848 22.2917 134.56C36.9383 162.351 65.9724 181.272 99.3942 181.272C147.566 181.272 186.617 141.967 186.617 93.4819C186.617 87.9163 186.101 82.474 185.118 77.1997C185.026 77.2024 184.933 77.2081 184.841 77.2081C179.68 77.2079 175.497 72.9964 175.497 67.8025C175.497 62.6088 179.68 58.3985 184.841 58.3984C190.001 58.3984 194.185 62.6087 194.185 67.8025Z" fill="#003399"/>
<path d="M73.6655 153.152C72.8739 152.355 71.5901 152.356 70.7985 153.153C70.0072 153.95 70.007 155.241 70.7985 156.038C71.59 156.835 72.8729 156.834 73.6645 156.038C73.8882 155.813 74.0456 155.555 74.1419 155.282C74.398 154.557 74.234 153.724 73.6655 153.152ZM131.307 31.9908C130.515 31.1943 129.232 31.1942 128.441 31.9908C127.649 32.7874 127.65 34.0787 128.441 34.8755C129.233 35.6722 130.516 35.6732 131.308 34.8765C131.505 34.6778 131.65 34.454 131.747 34.2182C132.055 33.4729 131.902 32.5893 131.307 31.9908ZM135.305 27.9664C136.952 29.6234 137.688 31.8425 137.529 34.005C141.129 36.4657 144.55 39.2989 147.737 42.5068C175.038 69.9855 175.038 114.539 147.737 142.017C128.875 161.001 101.92 166.864 78.0622 159.623C77.9348 159.773 77.8034 159.921 77.663 160.062C74.6631 163.081 69.7998 163.082 66.8 160.062C63.8002 157.043 63.8004 152.148 66.8 149.129C69.7999 146.109 74.6641 146.108 77.6639 149.128C79.0746 150.548 79.8144 152.381 79.8994 154.237C101.79 160.801 126.461 155.382 143.739 137.993C168.832 112.737 168.832 71.7873 143.739 46.5312C141.002 43.777 138.081 41.3259 135.018 39.1741C132.002 41.9156 127.348 41.8247 124.443 38.8999C121.443 35.8805 121.443 30.9856 124.443 27.9664C127.442 24.9471 132.306 24.9473 135.305 27.9664Z" fill="#003399"/>
<path d="M13.0336 92.3395C13.0334 90.3509 11.478 88.7258 9.52703 88.6309C9.46646 88.628 9.40495 88.6268 9.34342 88.6268C7.30625 88.627 5.65483 90.2891 5.65464 92.3395C5.65464 94.3901 7.30613 96.0535 9.34342 96.0537C11.3809 96.0537 13.0336 94.3902 13.0336 92.3395ZM171.752 35.0016C171.751 32.9512 170.1 31.289 168.063 31.2889C167.125 31.2889 166.274 31.6373 165.622 32.2171C164.852 32.9015 164.374 33.8938 164.374 35.0016C164.374 37.0523 166.025 38.7158 168.063 38.7158C170.1 38.7156 171.752 37.0522 171.752 35.0016ZM177.406 35.0016C177.406 40.1955 173.223 44.407 168.063 44.4072C162.902 44.4072 158.719 40.1956 158.719 35.0016C158.719 33.2945 159.173 31.6933 159.963 30.3134C144.271 15.067 122.923 5.6915 99.3939 5.69141C54.5517 5.69141 17.6116 39.7527 12.7216 83.5704C16.2127 84.9334 18.6881 88.3445 18.6882 92.3395C18.6882 97.5335 14.5038 101.745 9.34342 101.745C4.18316 101.745 2.67812e-08 97.5334 0 92.3395C0.000158148 87.9352 3.00844 84.2382 7.06969 83.216C12.1498 36.416 51.5455 2.49941e-07 99.3939 0C124.574 9.20662e-05 147.418 10.0898 164.145 26.4645C165.337 25.9095 166.665 25.5975 168.063 25.5975C173.223 25.5976 177.406 29.8079 177.406 35.0016Z" fill="#003399"/>
<path d="M51.7071 137.959C50.9396 137.187 49.708 137.164 48.9143 137.889C48.8894 137.912 48.8643 137.936 48.8401 137.96C48.0489 138.757 48.049 140.048 48.8401 140.845C49.6316 141.641 50.9155 141.642 51.7071 140.846C52.4987 140.049 52.4987 138.756 51.7071 137.959ZM105.305 23.6084C104.514 22.8116 103.229 22.8116 102.437 23.6084C102.072 23.9758 101.877 24.4418 101.848 24.923C101.813 25.4928 102.011 26.0637 102.438 26.4941C103.23 27.2902 104.513 27.2902 105.304 26.4941C106.096 25.6975 106.096 24.4052 105.305 23.6084ZM109.304 19.584C112.303 22.6034 112.302 27.4993 109.303 30.5185C106.303 33.5373 101.44 33.5373 98.4398 30.5185C97.5985 29.6717 96.9935 28.6754 96.6241 27.6161C80.7411 28.0316 64.99 34.3329 52.8707 46.5308C29.6408 69.9117 27.9187 106.742 47.6999 132.118C50.4055 131.151 53.5403 131.756 55.7055 133.935C58.7054 136.954 58.7054 141.851 55.7055 144.87C52.7056 147.889 47.8414 147.888 44.8416 144.869C42.4224 142.434 41.9545 138.778 43.4379 135.871C21.7131 108.25 23.5226 68.0209 48.8723 42.5063C62.1512 29.1414 79.4481 22.28 96.8457 21.9165C97.2183 21.0697 97.7505 20.2768 98.4388 19.584C101.439 16.5646 106.304 16.5646 109.304 19.584Z" fill="#003399"/>
<path fill-rule="evenodd" clip-rule="evenodd" d="M151.128 94.6171C151.128 123.292 128.032 146.538 99.5426 146.538C71.0529 146.538 47.9575 123.292 47.9575 94.6171C47.9575 65.9422 71.0529 42.6965 99.5426 42.6965C128.032 42.6965 151.128 65.9422 151.128 94.6171ZM116.142 100.3C116.142 99.3184 115.351 98.5222 114.375 98.5219H84.7103C83.7344 98.5219 82.9432 99.3181 82.9432 100.3V101.544H80.8228V100.3C80.8228 98.1394 82.5633 96.3876 84.7103 96.3876H114.375C116.522 96.388 118.263 98.1396 118.263 100.3V101.544H116.142V100.3ZM104.351 108.974H94.734V118.655H104.351V108.974ZM99.5427 99.0567L92.9198 107.149L84.8812 113.814L92.9182 120.477L99.543 128.572L106.17 120.474L114.204 113.814L106.166 107.149L99.5427 99.0567ZM95.9216 106.839H103.165L99.5427 102.412L95.9216 106.839ZM106.472 110.169V117.46L110.87 113.814L106.472 110.169ZM103.164 120.789H95.9205L99.543 125.216L103.164 120.789ZM92.6135 117.458L92.6135 110.168L88.2152 113.814L92.6135 117.458ZM80.8228 126.084V127.328C80.8228 129.489 82.5633 131.241 84.7103 131.241H114.375C116.522 131.24 118.263 129.488 118.263 127.328V126.084H116.142V127.328C116.142 128.31 115.351 129.106 114.375 129.106H84.7103C83.7344 129.106 82.9432 128.31 82.9432 127.328V126.084H80.8228ZM124.633 130.627V95.2201C126.715 95.1457 128.381 93.4235 128.381 91.3098V61.4535C128.381 59.2928 126.64 57.5411 124.493 57.5407H74.5939C72.4469 57.5407 70.7063 59.2925 70.7063 61.4535V91.3098C70.7063 93.4235 72.3715 95.1457 74.4534 95.2201V130.627C74.4534 132.788 76.194 134.54 78.341 134.54H120.745C122.892 134.54 124.633 132.788 124.633 130.627ZM124.633 95.2201C124.614 95.2208 124.595 95.2214 124.576 95.2218L124.55 95.2222L124.52 95.2226L124.493 95.2227L124.633 95.2201ZM72.8268 91.3098C72.8268 92.2685 73.5805 93.0501 74.524 93.087C74.5472 93.0879 74.5705 93.0884 74.5939 93.0884H124.493L124.522 93.0881C124.535 93.0879 124.549 93.0875 124.562 93.087C125.506 93.0501 126.26 92.2685 126.26 91.3098V61.4535C126.26 60.4715 125.469 59.6753 124.493 59.675H74.5939C73.618 59.675 72.8268 60.4713 72.8268 61.4535V91.3098ZM76.5739 95.2227V95.2213H122.512V95.2227V130.627C122.512 131.609 121.721 132.405 120.745 132.406H78.341C77.3651 132.406 76.5739 131.61 76.5739 130.627V95.2227ZM120.886 90.4268V62.3351H78.2V90.4268H120.886ZM103.995 77.9184H98.5241L94.9775 84.1017L92.3559 74.2557L90.2561 77.9184H80.3205V88.2925H118.765V77.9184H111.464L108.428 84.8437L106.008 72.7759L103.995 77.9184ZM80.3205 75.7842H89.033L93.0793 68.7283L95.6995 78.5729L97.301 75.7842H102.551L106.666 65.2753L109.185 77.8309L110.082 75.7842H118.765V64.4694H80.3205V75.7842Z" fill="#003399"/>
</svg>
