<svg width="169" height="169" viewBox="0 0 169 169" fill="none" xmlns="http://www.w3.org/2000/svg">
<path d="M68.1115 14.9544C73.374 13.719 78.8607 13.0655 84.5 13.0655C90.2466 13.0655 95.8347 13.7441 101.189 15.0255L98.0383 1.07872C93.6303 0.368876 89.1082 0 84.5 0C79.9944 0 75.5712 0.352632 71.2564 1.03181L68.1115 14.9544Z" fill="#FAC903"/>
<path d="M34.9589 16.0386C27.6959 21.3035 21.3035 27.6959 16.0386 34.9589L23.6656 47.0369C29.5244 37.5433 37.5433 29.5244 47.0369 23.6656L34.9589 16.0386Z" fill="#FAC903"/>
<path d="M1.07872 98.0383L15.0255 101.189C13.7441 95.8347 13.0655 90.2466 13.0655 84.5C13.0655 78.8607 13.719 73.374 14.9544 68.1115L1.03181 71.2564C0.352632 75.5712 0 79.9944 0 84.5C0 89.1082 0.368876 93.6303 1.07872 98.0383Z" fill="#FAC903"/>
<path d="M35.1686 153.113L47.2649 145.474C37.7197 139.633 29.6523 131.613 23.7544 122.107L16.1346 134.173C21.4319 141.451 27.8631 147.851 35.1686 153.113Z" fill="#FAC903"/>
<path d="M98.1048 167.911L101.256 153.958C95.882 155.25 90.2709 155.934 84.5 155.934C78.8365 155.934 73.3269 155.275 68.0437 154.03L71.1899 167.958C75.5257 168.644 79.9713 169 84.5 169C89.1314 169 93.6758 168.627 98.1048 167.911Z" fill="#FAC903"/>
<path d="M153.017 133.964L145.386 121.879C139.506 131.437 131.437 139.506 121.879 145.386L133.964 153.017C141.285 147.723 147.723 141.285 153.017 133.964Z" fill="#FAC903"/>
<path d="M134.173 16.1346L122.107 23.7544C131.613 29.6523 139.633 37.7197 145.474 47.2649L153.113 35.1686C147.851 27.8631 141.451 21.4319 134.173 16.1346Z" fill="#FAC903"/>
<path d="M167.958 71.1899L154.03 68.0437C155.275 73.3269 155.934 78.8365 155.934 84.5C155.934 90.2709 155.25 95.882 153.958 101.256L167.911 98.1048C168.627 93.6758 169 89.1314 169 84.5C169 79.9713 168.644 75.5257 167.958 71.1899Z" fill="#FAC903"/>
<path fill-rule="evenodd" clip-rule="evenodd" d="M84.5 13.0655C78.8607 13.0655 73.374 13.719 68.1115 14.9544C60.5534 16.7286 53.4579 19.703 47.0369 23.6656C37.5433 29.5244 29.5244 37.5433 23.6656 47.0369C19.703 53.4579 16.7286 60.5535 14.9544 68.1115C13.719 73.374 13.0655 78.8607 13.0655 84.5C13.0655 90.2466 13.7441 95.8347 15.0255 101.189C16.821 108.691 19.8001 115.733 23.7544 122.107C29.6523 131.613 37.7197 139.633 47.2649 145.474C53.6064 149.355 60.6003 152.275 68.0437 154.03C73.3269 155.275 78.8365 155.934 84.5 155.934C90.2709 155.934 95.882 155.25 101.256 153.958C108.644 152.182 115.585 149.259 121.879 145.386C131.437 139.506 139.506 131.437 145.386 121.879C149.259 115.585 152.182 108.644 153.958 101.256C155.25 95.882 155.934 90.2709 155.934 84.5C155.934 78.8365 155.275 73.3269 154.03 68.0437C152.275 60.6003 149.355 53.6064 145.474 47.2649C139.633 37.7197 131.613 29.6523 122.107 23.7544C115.733 19.8001 108.691 16.821 101.189 15.0255C95.8347 13.7441 90.2466 13.0655 84.5 13.0655ZM84.642 144.857C117.898 144.857 144.857 117.898 144.857 84.642C144.857 51.3861 117.898 24.4269 84.642 24.4269C51.3861 24.4269 24.4269 51.3861 24.4269 84.642C24.4269 117.898 51.3861 144.857 84.642 144.857Z" fill="#FAC903"/>
<path d="M29.1763 87.0966C30.5323 116.48 54.7821 139.886 84.5006 139.886C114.219 139.886 138.468 116.48 139.824 87.0966H29.1763Z" fill="#FAC903"/>
<path d="M87.0966 81.9047H139.824C138.508 53.3815 115.62 30.4926 87.0966 29.1763V81.9047Z" fill="#FAC903"/>
<path d="M81.9047 29.1763C53.3812 30.4922 30.4922 53.3812 29.1763 81.9047H81.9047V29.1763Z" fill="#FAC903"/>
<path fill-rule="evenodd" clip-rule="evenodd" d="M84.5006 23.9224C117.957 23.9226 145.078 51.0446 145.078 84.5006C145.077 117.957 117.957 145.077 84.5006 145.078C51.0446 145.078 23.9226 117.957 23.9224 84.5006C23.9224 51.0444 51.0444 23.9224 84.5006 23.9224ZM144.857 84.642C144.857 117.898 117.898 144.857 84.642 144.857C51.3861 144.857 24.4269 117.898 24.4269 84.642C24.4269 51.3861 51.3861 24.4269 84.642 24.4269C117.898 24.4269 144.857 51.3861 144.857 84.642Z" fill="#FAC903"/>
</svg>
