<svg width="303" height="145" viewBox="0 0 303 145" fill="none" xmlns="http://www.w3.org/2000/svg">
<path d="M233.596 64.3008L229.122 80.9954L227.036 80.4363L231.509 63.7417L233.596 64.3008Z" fill="#7A0068"/>
<path d="M238.21 75.6019L221.515 71.1286L222.074 69.0419L238.769 73.5153L238.21 75.6019Z" fill="#7A0068"/>
<path d="M212.603 66.131L211.857 68.9134L157.773 54.4217L158.519 51.6393L212.603 66.131Z" fill="#7A0068"/>
<path d="M302.684 90.2681L301.939 93.0506L247.855 78.5589L248.601 75.7764L302.684 90.2681Z" fill="#7A0068"/>
<path fill-rule="evenodd" clip-rule="evenodd" d="M252.852 11.49L247.748 30.541C264.108 37.4003 275.6 53.5672 275.6 72.4183C275.6 74.3705 275.477 76.2938 275.238 78.181L294.288 83.2855C294.883 79.7518 295.193 76.1212 295.193 72.4183C295.193 44.4929 277.577 20.6816 252.852 11.49ZM241.24 8.36903L236.138 27.4127C234.198 27.1597 232.22 27.0292 230.211 27.0292C211.355 27.0292 195.185 38.5269 188.329 54.8939L169.278 49.7893C178.466 25.0579 202.281 7.43683 230.211 7.43683C233.971 7.43683 237.656 7.75611 241.24 8.36903ZM166.159 61.4018C165.548 64.9826 165.229 68.6633 165.229 72.4183C165.229 100.406 182.924 124.262 207.736 133.408L212.839 114.364C196.391 107.545 184.822 91.3326 184.822 72.4183C184.822 70.4141 184.952 68.4403 185.204 66.5047L166.159 61.4018ZM219.357 136.497C222.886 137.091 226.513 137.4 230.211 137.4C258.195 137.4 282.047 119.711 291.196 94.9053L272.152 89.8023C265.33 106.244 249.121 117.807 230.211 117.807C228.263 117.807 226.344 117.685 224.461 117.447L219.357 136.497Z" fill="#7A0068"/>
<path d="M224.078 90.0815L226.861 90.8271L212.416 144.737L209.633 143.991L224.078 90.0815Z" fill="#7A0068"/>
<path d="M248.216 0L250.998 0.745554L236.553 54.6554L233.771 53.9099L248.216 0Z" fill="#7A0068"/>
<path d="M182.325 140.926L174.014 113.223L169.111 113.19V113.223H157.728V59.1428L152.174 57.6547L155.287 46.0404L157.728 46.6947V32.1349L166.019 4.50122H110.198L85.935 86.3746H113.402L128.564 29.5701V113.261L103.591 113.212L95.2758 140.876L182.325 140.926Z" fill="#7A0068"/>
<path d="M95.8888 32.0264H38.2211V58.4987H87.9467L79.6369 86.1965H38.2211V113.128L46.5117 140.763H8.30642L8.29054 31.9575L0 4.32346L104.179 4.39272L95.8888 32.0264Z" fill="#7A0068"/>
</svg>
