<svg width="945" height="229" viewBox="0 0 945 229" fill="none" xmlns="http://www.w3.org/2000/svg">
<path d="M353.503 173.645H319.255V156.808H318.797C310.932 169.942 299.287 176.509 283.862 176.509C272.484 176.509 263.512 173.302 256.945 166.887C250.454 160.397 247.209 151.768 247.209 141.001C247.209 118.245 260.686 105.111 287.642 101.599L319.484 97.3605C319.484 84.5318 312.536 78.1174 298.638 78.1174C284.664 78.1174 271.377 82.2791 258.777 90.6025V63.3416C263.817 60.7453 270.69 58.4544 279.395 56.4691C288.176 54.4837 296.156 53.491 303.334 53.491C336.78 53.491 353.503 70.1759 353.503 103.546V173.645ZM319.484 125.996V118.093L298.18 120.842C286.42 122.369 280.54 127.676 280.54 136.763C280.54 140.886 281.953 144.284 284.778 146.957C287.68 149.553 291.574 150.851 296.462 150.851C303.258 150.851 308.794 148.522 313.07 143.864C317.346 139.13 319.484 133.174 319.484 125.996Z" fill="#333333"/>
<path d="M241.353 173.645H205.273V106.753C205.273 89.7243 199.011 81.2101 186.488 81.2101C180.532 81.2101 175.683 83.7682 171.941 88.8844C168.199 94.0006 166.329 100.377 166.329 108.013V173.645H130.133V106.066C130.133 89.4953 123.986 81.2101 111.692 81.2101C105.507 81.2101 100.543 83.6536 96.8017 88.5407C93.1364 93.4279 91.3037 100.071 91.3037 108.471V173.645H55.1085V56.3545H91.3037V74.6812H91.7619C95.5036 68.4196 100.734 63.3416 107.454 59.4471C114.25 55.4764 121.657 53.491 129.675 53.491C146.246 53.491 157.585 60.7835 163.694 75.3684C172.628 60.7835 185.762 53.491 203.096 53.491C228.601 53.491 241.353 69.2214 241.353 100.682V173.645Z" fill="#333333"/>
<path d="M20.8466 37.7988C14.7377 37.7988 9.73605 36.0043 5.84163 32.4154C1.94721 28.75 0 24.2829 0 19.014C0 13.5923 1.94721 9.16338 5.84163 5.72713C9.73605 2.29088 14.7377 0.572754 20.8466 0.572754C27.0319 0.572754 32.0335 2.29088 35.8516 5.72713C39.746 9.16338 41.6932 13.5923 41.6932 19.014C41.6932 24.512 39.746 29.0173 35.8516 32.5299C32.0335 36.0425 27.0319 37.7988 20.8466 37.7988ZM38.7151 173.645H2.51992V56.3546H38.7151V173.645Z" fill="#98216F"/>
<path d="M944.63 119.696H861.816C862.121 132.754 865.634 142.834 872.354 149.935C879.073 157.037 888.313 160.587 900.073 160.587C913.283 160.587 925.425 156.235 936.497 147.53V165.169C926.188 172.653 912.558 176.394 895.606 176.394C879.035 176.394 866.016 171.087 856.547 160.473C847.078 149.782 842.344 134.777 842.344 115.458C842.344 97.2077 847.498 82.3554 857.807 70.9013C868.192 59.3707 881.059 53.6055 896.407 53.6055C911.756 53.6055 923.63 58.5689 932.03 68.4959C940.43 78.4228 944.63 92.206 944.63 109.845V119.696ZM925.387 103.775C925.31 92.9315 922.676 84.4936 917.483 78.461C912.367 72.4285 905.227 69.4122 896.064 69.4122C887.206 69.4122 879.684 72.5812 873.499 78.9192C867.314 85.2572 863.496 93.5424 862.045 103.775H925.387Z" fill="#98216F"/>
<path d="M828.929 173.645H810.144V106.753C810.144 81.8591 801.057 69.4122 782.883 69.4122C773.49 69.4122 765.701 72.963 759.516 80.0646C753.407 87.0898 750.353 95.9859 750.353 106.753V173.645H731.568V56.3545H750.353V75.8266H750.811C759.669 61.0125 772.498 53.6055 789.297 53.6055C802.126 53.6055 811.938 57.7672 818.734 66.0905C825.53 74.3375 828.929 86.2881 828.929 101.942V173.645Z" fill="#98216F"/>
<path d="M698.452 26.5737C695.092 26.5737 692.228 25.4282 689.861 23.1374C687.494 20.8466 686.31 17.9449 686.31 14.4322C686.31 10.9196 687.494 8.0179 689.861 5.72706C692.228 3.35987 695.092 2.17627 698.452 2.17627C701.888 2.17627 704.79 3.35987 707.157 5.72706C709.6 8.0179 710.822 10.9196 710.822 14.4322C710.822 17.7921 709.6 20.6557 707.157 23.0229C704.79 25.3901 701.888 26.5737 698.452 26.5737ZM707.615 173.645H688.83V56.3545H707.615V173.645Z" fill="#98216F"/>
<path d="M664.877 173.645H646.093V0H664.877V173.645Z" fill="#98216F"/>
<path d="M624.659 173.645H605.875V106.753C605.875 81.8591 596.788 69.4122 578.614 69.4122C569.221 69.4122 561.432 72.963 555.247 80.0646C549.138 87.0898 546.084 95.9859 546.084 106.753V173.645H527.299V56.3545H546.084V75.8266H546.542C555.4 61.0125 568.229 53.6055 585.028 53.6055C597.857 53.6055 607.669 57.7672 614.465 66.0905C621.261 74.3375 624.659 86.2881 624.659 101.942V173.645Z" fill="#98216F"/>
<path d="M452.948 176.394C435.614 176.394 421.754 170.934 411.369 160.015C401.06 149.019 395.906 134.472 395.906 116.374C395.906 96.6732 401.289 81.2864 412.056 70.214C422.823 59.1417 437.37 53.6055 455.697 53.6055C473.183 53.6055 486.814 58.9889 496.588 69.7559C506.439 80.5228 511.364 95.4514 511.364 114.542C511.364 133.25 506.057 148.255 495.443 159.557C484.905 170.782 470.74 176.394 452.948 176.394ZM454.322 69.4122C442.257 69.4122 432.712 73.5357 425.687 81.7827C418.661 89.9534 415.149 101.255 415.149 115.687C415.149 129.585 418.7 140.543 425.801 148.561C432.903 156.579 442.41 160.587 454.322 160.587C466.463 160.587 475.78 156.655 482.27 148.79C488.837 140.924 492.121 129.738 492.121 115.229C492.121 100.568 488.837 89.2661 482.27 81.3246C475.78 73.383 466.463 69.4122 454.322 69.4122Z" fill="#98216F"/>
<path fill-rule="evenodd" clip-rule="evenodd" d="M386.391 37.7988C380.282 37.7988 375.28 36.0043 371.386 32.4154C367.491 28.75 365.544 24.2829 365.544 19.014C365.544 13.5923 367.491 9.16339 371.386 5.72713C375.28 2.29088 380.282 0.572754 386.391 0.572754C392.576 0.572754 397.578 2.29088 401.396 5.72713C405.29 9.16339 407.237 13.5923 407.237 19.014C407.237 24.512 405.29 29.0173 401.396 32.5299C397.578 36.0425 392.576 37.7988 386.391 37.7988ZM404.259 171.584C404.259 188.918 400.021 202.777 391.545 213.162C383.069 223.547 370.851 228.74 354.892 228.74C349.623 228.74 343.857 227.595 337.596 225.304V196.897C342.636 199.723 347.103 201.135 350.997 201.135C362.375 201.135 368.064 192.201 368.064 174.333V56.3546H404.259V66.2961C392.823 79.1288 387.527 96.1477 387.527 116.374C387.527 135.594 392.896 151.953 404.259 164.655V171.584Z" fill="#333333"/>
</svg>
