<svg width="2180" height="2126" viewBox="0 0 2180 2126" fill="none" xmlns="http://www.w3.org/2000/svg">
<path d="M1665.29 1068.71L1921.05 1068.71L2145.83 1451.08L1921.05 1833.44H1665.29L1890.07 1451.08L1665.29 1068.71Z" fill="#BDF625"/>
<path d="M1299.51 1832.27C1218.8 1832.27 1148.28 1816.78 1087.96 1785.8C1027.63 1754 980.751 1709.57 947.326 1652.51C914.716 1594.62 898.411 1526.96 898.411 1449.51C898.411 1372.06 914.716 1304.8 947.326 1247.74C980.751 1190.67 1027.63 1146.65 1087.96 1115.67C1148.28 1084.69 1219.21 1069.2 1300.74 1069.2C1382.26 1069.2 1452.37 1084.69 1511.07 1115.67C1570.58 1146.65 1616.64 1190.67 1649.25 1247.74C1681.86 1304.8 1698.17 1372.47 1698.17 1450.73C1698.17 1528.18 1681.86 1595.85 1649.25 1653.73C1616.64 1710.8 1570.58 1754.82 1511.07 1785.8C1451.56 1816.78 1381.04 1832.27 1299.51 1832.27ZM1299.51 1636.61C1355.76 1636.61 1398.56 1619.9 1427.91 1586.47C1458.08 1552.23 1473.16 1506.58 1473.16 1449.51C1473.16 1392.44 1458.08 1347.6 1427.91 1314.99C1398.56 1281.57 1355.76 1264.86 1299.51 1264.86C1242.45 1264.86 1198.83 1281.57 1168.67 1314.99C1138.5 1347.6 1123.42 1392.44 1123.42 1449.51C1123.42 1506.58 1138.5 1552.23 1168.67 1586.47C1198.83 1619.9 1242.45 1636.61 1299.51 1636.61Z" fill="#BDF625"/>
<path fill-rule="evenodd" clip-rule="evenodd" d="M124.733 2057.28C195.659 2102.93 287.782 2125.76 401.101 2125.76C527.465 2125.76 624.479 2096.82 692.144 2038.93C759.81 1981.87 793.643 1900.34 793.643 1794.36V1303.99H705.081L814.981 1267.09L920.924 1083.87H661.469V1206.16H627.332C601.244 1162.95 565.781 1129.53 520.943 1105.88C476.919 1081.43 423.928 1069.2 361.969 1069.2C250.281 1069.2 162.642 1103.03 99.0525 1170.7C36.2785 1238.36 4.89148 1329.26 4.89148 1443.4C4.89148 1519.21 18.7507 1585.25 46.4691 1641.5C75.0027 1697.75 114.542 1741.37 165.087 1772.35C216.448 1802.51 276.369 1817.59 344.849 1817.59C397.84 1817.59 442.679 1808.22 479.365 1789.47C516.866 1769.9 547.031 1740.96 569.857 1702.64H575.972V1794.36C575.972 1844.09 560.074 1882.41 528.28 1909.31C497.3 1936.21 452.054 1949.66 392.541 1949.66C307.756 1949.66 255.987 1922.76 237.237 1868.95H0C13.0439 1949.66 54.6215 2012.44 124.733 2057.28ZM524.611 1579.13C495.262 1607.67 454.092 1621.93 401.101 1621.93C346.48 1621.93 304.087 1606.85 273.923 1576.69C244.574 1545.71 229.9 1501.69 229.9 1444.62C229.9 1387.55 244.574 1343.53 273.923 1312.55C304.087 1280.75 346.48 1264.86 401.101 1264.86C453.277 1264.86 494.039 1279.12 523.388 1307.66C553.552 1335.38 568.635 1374.1 568.635 1423.83V1460.52C568.635 1511.06 553.96 1550.6 524.611 1579.13Z" fill="#BDF625"/>
<path d="M1780.46 968.513C1699.75 968.513 1629.23 953.023 1568.9 922.044C1508.57 890.249 1461.7 845.818 1428.27 788.751C1395.66 730.868 1379.36 663.203 1379.36 585.754C1379.36 508.306 1395.66 441.048 1428.27 383.981C1461.7 326.914 1508.57 282.89 1568.9 251.911C1629.23 220.932 1700.16 205.442 1781.68 205.442C1863.21 205.442 1933.32 220.932 1992.02 251.911C2051.53 282.89 2097.59 326.914 2130.2 383.981C2162.81 441.048 2179.12 508.714 2179.12 586.977C2179.12 664.426 2162.81 732.091 2130.2 789.974C2097.59 847.041 2051.53 891.064 1992.02 922.044C1932.5 953.023 1861.98 968.513 1780.46 968.513ZM1780.46 772.853C1836.71 772.853 1879.51 756.141 1908.86 722.716C1939.03 688.475 1954.11 642.822 1954.11 585.754C1954.11 528.687 1939.03 483.849 1908.86 451.239C1879.51 417.814 1836.71 401.101 1780.46 401.101C1723.39 401.101 1679.78 417.814 1649.61 451.239C1619.45 483.849 1604.37 528.687 1604.37 585.754C1604.37 642.822 1619.45 688.475 1649.61 722.716C1679.78 756.141 1723.39 772.853 1780.46 772.853Z" fill="#BDF625"/>
<path fill-rule="evenodd" clip-rule="evenodd" d="M1123.87 953.838C1066.81 953.838 1022.38 939.572 990.582 911.038C959.602 881.689 944.113 837.258 944.113 777.745V432.986L1053.64 396.21H944.113H866.028L762.508 220.117L946.558 220.117V0H1166.67V220.117H1328.09V396.21H1169.12V740.611L1058.53 777.745H1304.82L1408.34 953.838H1123.87Z" fill="#BDF625"/>
<path d="M401.101 968.513C320.392 968.513 249.873 953.023 189.545 922.044C129.217 890.249 82.3399 845.818 48.9148 788.751C16.3049 730.868 0 663.203 0 585.754C0 508.306 16.3049 441.048 48.9148 383.981C82.3399 326.914 129.217 282.89 189.545 251.911C249.873 220.932 320.799 205.442 402.324 205.442C483.849 205.442 553.96 220.932 612.658 251.911C672.171 282.89 718.232 326.914 750.842 383.981C783.452 441.048 799.757 508.714 799.757 586.977C799.757 664.426 783.452 732.091 750.842 789.974C718.232 847.041 672.171 891.064 612.658 922.044C553.145 953.023 482.626 968.513 401.101 968.513ZM401.101 772.853C457.353 772.853 500.154 756.141 529.503 722.716C559.667 688.475 574.749 642.822 574.749 585.754C574.749 528.687 559.667 483.849 529.503 451.239C500.154 417.814 457.353 401.101 401.101 401.101C344.034 401.101 300.418 417.814 270.254 451.239C240.09 483.849 225.008 528.687 225.008 585.754C225.008 642.822 240.09 688.475 270.254 722.716C300.418 756.141 344.034 772.853 401.101 772.853Z" fill="#BDF625"/>
</svg>
