<svg width="209" height="209" viewBox="0 0 209 209" fill="none" xmlns="http://www.w3.org/2000/svg">
<path d="M81.3147 5.79006C81.3147 2.59227 83.907 0 87.1048 0C90.3025 0 92.8948 2.59227 92.8948 5.79006V57.909H121.851C125.048 57.909 127.641 60.5013 127.641 63.699C127.641 66.8967 125.048 69.489 121.851 69.4891H87.1048C83.907 69.4891 81.3147 66.8968 81.3147 63.699V5.79006Z" fill="#FC800B"/>
<path d="M116.061 5.79006C116.061 2.59227 118.654 0 121.852 0C125.049 4.71085e-05 127.642 2.5923 127.642 5.79006V40.536C127.642 43.7337 125.049 46.326 121.852 46.3261H110.269C107.071 46.3261 104.479 43.7337 104.479 40.536C104.479 37.3382 107.071 34.7457 110.269 34.7457H116.061V5.79006Z" fill="#FC800B"/>
<path d="M116.06 144.768C116.06 141.571 118.653 138.978 121.851 138.978C125.048 138.978 127.641 141.571 127.641 144.768V202.675C127.641 205.872 125.048 208.465 121.851 208.465H87.1048C83.907 208.465 81.3148 205.872 81.3147 202.675C81.3147 199.477 83.907 196.884 87.1048 196.884H116.06V144.768Z" fill="#FC800B"/>
<path d="M98.6877 150.558C101.885 150.558 104.478 153.151 104.478 156.348C104.478 159.546 101.885 162.139 98.6877 162.139H87.1048C83.907 162.139 81.3147 159.546 81.3147 156.348C81.3147 153.151 83.907 150.558 87.1048 150.558H98.6877Z" fill="#FC800B"/>
<path d="M98.6877 173.722C101.885 173.722 104.478 176.314 104.478 179.512C104.478 182.709 101.885 185.302 98.6877 185.302H87.1048C83.907 185.302 81.3147 182.709 81.3147 179.512C81.3147 176.314 83.907 173.722 87.1048 173.722H98.6877Z" fill="#FC800B"/>
<path d="M167.933 123.124V85.4054C167.933 82.8206 169.579 80.5228 172.027 79.6917C174.474 78.8606 177.179 79.6809 178.753 81.7313L196.886 105.353V85.4054C196.886 82.0729 199.587 79.3712 202.92 79.3712C206.253 79.3712 208.954 82.0728 208.954 85.4054V123.124C208.954 125.709 207.308 128.007 204.86 128.838C202.413 129.669 199.707 128.849 198.133 126.798L180.001 103.176V123.124C180.001 126.457 177.299 129.158 173.967 129.158C170.634 129.158 167.933 126.457 167.933 123.124Z" fill="#FC800B"/>
<path d="M14.4324 84.8368C17.6528 76.5518 28.9605 76.4871 32.3074 84.6425L32.385 84.8368L32.3855 84.8385L46.4064 120.94C47.6128 124.046 46.0725 127.543 42.966 128.749C39.8596 129.956 36.3631 128.415 35.1566 125.309L23.4084 95.0596L11.6604 125.309C10.4539 128.415 6.9575 129.956 3.85101 128.749C0.744551 127.543 -0.795509 124.046 0.410954 120.94L14.4318 84.8385L14.4324 84.8368Z" fill="#FC800B"/>
<path d="M34.988 110.57C37.4874 110.57 39.5135 112.597 39.5135 115.096C39.5135 117.595 37.4874 119.622 34.988 119.622H11.8249C9.3255 119.622 7.29939 117.595 7.29939 115.096C7.29939 112.597 9.3255 110.57 11.8249 110.57H34.988Z" fill="#FC800B"/>
<path d="M120.291 84.8368C123.511 76.5518 134.819 76.4871 138.166 84.6425L138.243 84.8368L138.244 84.8385L152.265 120.94C153.471 124.046 151.931 127.543 148.824 128.749C145.718 129.956 142.221 128.415 141.015 125.309L129.267 95.0596L117.519 125.309C116.312 128.415 112.816 129.956 109.709 128.749C106.603 127.543 105.063 124.046 106.269 120.94L120.29 84.8385L120.291 84.8368Z" fill="#FC800B"/>
<path d="M87.9589 82.4236C89.1654 79.3171 92.6618 77.777 95.7683 78.9835C98.8748 80.19 100.415 83.6864 99.2086 86.7929L85.1877 122.894L85.1872 122.896C81.9414 131.246 70.4804 131.246 67.2346 122.896L67.2341 122.894L53.2132 86.7929C52.0067 83.6865 53.5468 80.1901 56.6532 78.9835C59.7597 77.777 63.2561 79.3171 64.4627 82.4236L76.2106 112.673L87.9589 82.4236Z" fill="#FC800B"/>
<path d="M140.849 110.57C143.349 110.57 145.375 112.597 145.375 115.096C145.375 117.595 143.349 119.622 140.849 119.622H117.686C115.187 119.622 113.161 117.595 113.161 115.096C113.161 112.597 115.187 110.57 117.686 110.57H140.849Z" fill="#FC800B"/>
<path d="M63.9422 0C67.14 0 69.7326 2.59227 69.7326 5.79006V63.6962C69.7326 66.894 67.14 69.4865 63.9422 69.4865H6.03607C2.83828 69.4865 0.246012 66.894 0.246012 63.6962V5.79006C0.246012 2.59227 2.83828 0 6.03607 0H63.9422ZM11.8261 57.9062H58.1522V11.5801H11.8261V57.9062Z" fill="#FC800B"/>
<path d="M40.7787 23.1631C43.9765 23.1631 46.569 25.7553 46.569 28.9531V40.5332C46.569 43.731 43.9765 46.3236 40.7787 46.3236H29.1985C26.0008 46.3236 23.4085 43.731 23.4085 40.5332V28.9531C23.4085 25.7553 26.0008 23.1631 29.1985 23.1631H40.7787Z" fill="#FC800B"/>
<path d="M202.917 0C206.115 6.85209e-05 208.707 2.59231 208.707 5.79006V63.6962C208.707 66.894 206.115 69.4865 202.917 69.4865H145.011C141.813 69.4865 139.221 66.894 139.221 63.6962V5.79006C139.221 2.59227 141.813 0 145.011 0H202.917ZM150.801 57.9062H197.127V11.5801H150.801V57.9062Z" fill="#FC800B"/>
<path d="M179.755 23.1631C182.953 23.1631 185.545 25.7553 185.545 28.9531V40.5332C185.545 43.731 182.953 46.3236 179.755 46.3236H168.175C164.977 46.3236 162.385 43.731 162.385 40.5332V28.9531C162.385 25.7553 164.977 23.1631 168.175 23.1631H179.755Z" fill="#FC800B"/>
<path d="M63.9422 138.978C67.14 138.978 69.7326 141.571 69.7326 144.768V202.675C69.7325 205.872 67.14 208.465 63.9422 208.465H6.03607C2.83832 208.465 0.24608 205.872 0.246012 202.675V144.768C0.246012 141.571 2.83828 138.978 6.03607 138.978H63.9422ZM11.8261 196.884H58.1522V150.558H11.8261V196.884Z" fill="#FC800B"/>
<path d="M40.7787 162.141C43.9765 162.141 46.569 164.734 46.569 167.931V179.511C46.569 182.709 43.9765 185.302 40.7787 185.302H29.1985C26.0008 185.302 23.4085 182.709 23.4085 179.511V167.931C23.4085 164.734 26.0008 162.141 29.1985 162.141H40.7787Z" fill="#FC800B"/>
<path d="M202.917 138.978C206.115 138.978 208.707 141.571 208.707 144.768V202.675C208.707 205.872 206.115 208.465 202.917 208.465H145.011C141.813 208.465 139.221 205.872 139.221 202.675V144.768C139.221 141.571 141.813 138.978 145.011 138.978H202.917ZM150.801 196.884H197.127V150.558H150.801V196.884Z" fill="#FC800B"/>
<path d="M179.755 162.141C182.953 162.141 185.545 164.734 185.545 167.931V179.511C185.545 182.709 182.953 185.302 179.755 185.302H168.175C164.977 185.302 162.385 182.709 162.385 179.511V167.931C162.385 164.734 164.977 162.141 168.175 162.141H179.755Z" fill="#FC800B"/>
</svg>
