<svg width="782" height="467" viewBox="0 0 782 467" fill="none" xmlns="http://www.w3.org/2000/svg">
<path d="M747.474 190.116V275.516H732.834V275.15C735.518 275.15 737.714 272.71 737.714 256.362V209.27C737.714 192.922 735.518 190.482 732.834 190.482V190.116H747.474ZM781.268 234.28C781.268 210.734 773.948 190.482 757.6 190.482H751.134V190.116H781.634V234.28H781.268ZM755.038 243.064C760.162 243.064 775.046 240.502 775.046 235.378H775.412V251.238H775.046C775.046 246.114 760.528 243.552 755.282 243.43H751.134V243.064H755.038ZM757.6 275.15C773.948 275.15 781.268 264.292 781.268 251.238H781.634V275.516H751.134V275.15H757.6Z" fill="white" style="mix-blend-mode:difference"/>
<path d="M592.482 243.552H592.848V248.92C593.458 264.292 600.412 275.15 602.974 275.15V275.516H587.602V275.15C589.92 275.15 591.872 266.244 592.36 253.068L592.482 247.09V243.552ZM602.974 190.116L632.376 275.516H621.884L599.07 209.27C596.874 202.926 594.678 198.29 592.848 195.24V209.88H592.482V194.752C590.53 191.824 588.944 190.482 587.602 190.482V190.116H602.974ZM637.622 250.506H637.256L652.262 190.116H666.902V190.482C664.218 190.482 662.022 192.068 662.022 209.27V256.362C662.022 272.71 664.218 275.15 666.902 275.15V275.516H647.382V275.15C650.066 275.15 652.262 272.71 652.262 256.362V191.58L637.622 250.506Z" fill="white" style="mix-blend-mode:difference"/>
<path d="M133.542 190.116V275.516H118.902V275.15C121.586 275.15 123.782 272.71 123.782 256.362V209.27C123.782 192.922 121.586 190.482 118.902 190.482V190.116H133.542ZM167.336 234.28C167.336 210.734 160.016 190.482 143.668 190.482H137.202V190.116H167.702V234.28H167.336ZM141.106 243.064C146.23 243.064 161.114 240.502 161.114 235.378H161.48V251.238H161.114C161.114 246.114 146.596 243.552 141.35 243.43H137.202V243.064H141.106ZM143.668 275.15C160.016 275.15 167.336 264.292 167.336 251.238H167.702V275.516H137.202V275.15H143.668Z" fill="white" style="mix-blend-mode:difference"/>
<path d="M0 275.15C2.684 275.15 4.88 273.564 4.88 256.362V209.27C4.88 192.922 2.684 190.482 0 190.482V190.116H14.64V256.362C14.64 273.564 16.836 275.15 19.52 275.15V275.516H0V275.15ZM18.3 190.482V190.116H22.448C45.872 190.238 53.07 202.804 53.07 217.932C53.07 232.816 47.824 245.504 24.888 245.626H18.3V245.26H24.522C41.846 245.26 43.31 232.206 43.31 217.932C43.31 203.414 39.772 190.482 22.082 190.482H18.3Z" fill="white" style="mix-blend-mode:difference"/>
<path fill-rule="evenodd" clip-rule="evenodd" d="M530.086 45.9329C492.531 15.311 448.909 0 399.221 0C407.888 1.73332 415.495 5.77772 422.043 12.1332C431.287 20.9924 438.991 30.4293 445.154 40.444C451.317 50.4588 456.228 60.5698 459.887 70.7771C463.354 80.7918 465.761 89.3621 467.109 96.4879L469.131 106.888L501.398 74.621C505.166 77.18 508.566 80.7332 511.598 85.2805C518.531 95.4878 521.997 105.406 521.997 115.036C521.997 121.584 521.516 128.71 520.553 136.413C530.76 117.925 542.316 102.325 555.219 89.6138C568.701 76.325 580.738 69.6807 591.33 69.6807V65.0585H510.961L530.086 45.9329ZM510.961 65.0585H485.02V69.6807C491.089 69.6807 496.549 71.3274 501.398 74.621L510.961 65.0585ZM355.8 396.66L285.86 225.815C286.466 223 286.705 219.941 286.705 216.712C286.705 205.885 283.018 196.994 272.333 192.77L257.682 156.981C258.401 158.515 259.166 160.018 259.978 161.487C267.296 174.391 276.83 185.561 288.578 194.998C300.326 204.435 313.422 212.716 327.866 219.842C337.818 224.884 347.906 229.698 358.132 234.283V256.362C358.132 272.71 355.936 275.15 353.252 275.15V275.516H372.772V275.15C370.088 275.15 367.892 272.71 367.892 256.362V238.572C368.941 239.023 369.991 239.472 371.042 239.919L372.329 243.064H371.552V243.43H372.478L426.087 374.455C420.502 388.322 414.628 402.574 408.465 417.211C401.917 433.003 395.273 449.277 388.532 466.032H384.199L361.051 409.487C367.867 409.927 374.909 410.17 382.177 410.218C373.318 408.485 365.229 404.537 357.91 398.374C357.199 397.805 356.496 397.234 355.8 396.66ZM355.8 396.66L361.051 409.487C340.41 408.156 321.838 405.03 305.333 400.107C282.607 393.366 260.171 382.967 238.023 368.907L298.689 307.952L302.155 318.063C304.274 324.612 307.74 332.7 312.555 342.33C317.37 351.959 323.533 361.589 331.044 371.219C337.871 380.202 346.123 388.682 355.8 396.66ZM380.242 243.864C378.449 243.601 376.851 243.457 375.7 243.43H372.478L372.329 243.064H375.456C376.162 243.064 377.054 243.015 378.066 242.918C378.793 243.233 379.519 243.548 380.242 243.864ZM395.412 250.711C394.677 247.023 386.334 244.758 380.242 243.864C385.406 246.12 390.462 248.402 395.412 250.711ZM395.83 250.906V235.378H395.464C395.464 239.796 384.4 242.309 378.066 242.918C376.081 242.059 374.081 241.204 372.066 240.353L371.643 240.174C371.442 240.089 371.242 240.004 371.042 239.919L367.892 232.22V190.116H353.252V190.482C355.885 190.482 358.049 192.831 358.13 208.36L333.066 147.102C328.636 135.161 326.422 123.991 326.422 113.591C326.422 112.523 326.444 111.465 326.489 110.417C328.018 112.807 329.728 115.098 331.622 117.288C341.444 128.651 354.155 138.569 369.755 147.043C385.354 155.324 402.206 163.413 420.31 171.309C435.332 177.665 450.161 184.502 464.798 191.82C467.212 193.075 469.591 194.358 471.935 195.667C472.519 198.49 472.864 202.786 472.864 209.27V257.216C472.864 280.152 516.784 285.642 516.784 257.338L516.418 257.216C516.418 281.616 482.624 279.664 482.624 257.216V209.27C482.624 206.493 482.688 204.117 482.806 202.087C490.4 206.828 497.59 211.88 504.375 217.242C508.687 220.706 512.687 224.415 516.376 228.372L516.418 233.304V239.648H516.784V233.304L516.822 228.853C522.993 235.55 528.281 242.947 532.686 251.042C539.812 263.945 543.375 279.353 543.375 297.264C543.375 317.678 537.694 336.456 526.331 353.596C514.775 370.737 497.346 384.411 474.042 394.618C457.48 402.129 437.932 406.848 415.399 408.774C428.88 405.307 440.435 398.277 450.065 387.685C464.124 371.893 471.154 352.73 471.154 330.197C471.154 314.789 466.435 301.79 456.998 291.197C447.561 280.605 435.428 271.264 420.599 263.175C412.665 259.005 404.408 254.915 395.83 250.906ZM395.83 250.906L395.412 250.711C395.446 250.883 395.464 251.059 395.464 251.238H395.83V250.906ZM516.822 228.853L516.906 219.03C517.516 197.07 519.468 190.482 521.664 190.482V190.116H511.538V190.482C513.734 190.482 515.686 197.07 516.296 219.03L516.376 228.372C516.483 228.486 516.589 228.601 516.695 228.715L516.822 228.853ZM482.806 202.087C483.384 192.164 485.276 190.482 487.504 190.482V190.116H467.984V190.482C469.604 190.482 471.046 191.37 471.935 195.667C475.646 197.739 479.27 199.879 482.806 202.087ZM317.432 65.0585H353.577V69.6807C342.984 69.6807 334.992 77.4806 329.599 93.0804C327.79 98.508 326.753 104.287 326.489 110.417C320.089 100.405 316.888 88.6361 316.888 75.1104C316.888 71.69 317.07 68.3394 317.432 65.0585ZM259.825 65.0585C266.612 51.0784 276.678 39.2143 290.022 29.4664C310.051 15.0221 335.185 5.87401 365.421 2.0222C358.681 4.1407 352.71 7.22215 347.51 11.2666C336.918 19.548 329.214 29.0812 324.4 39.8663C320.74 47.7492 318.417 56.1466 317.432 65.0585H259.825ZM254.709 149.719L250.445 139.302C242.163 119.465 232.245 102.903 220.689 89.6138C209.134 76.325 199.023 69.6807 190.356 69.6807V65.0585H259.825C252.801 79.5275 249.289 96.2632 249.289 115.266C249.289 128.019 251.096 139.504 254.709 149.719ZM254.709 149.719C255.592 152.215 256.583 154.636 257.682 156.981L254.709 149.719ZM358.13 208.36L367.892 232.22V238.572C364.625 237.165 361.372 235.735 358.132 234.283V209.27L358.132 209.041L358.132 208.877L358.131 208.735L358.131 208.56L358.13 208.36ZM272.333 192.77C268.089 191.092 262.742 190.151 256.083 190.116H251.935V190.482H255.717C273.407 190.482 276.945 202.194 276.945 216.712C276.945 230.986 275.481 242.82 258.157 242.82H251.935V243.186H258.523L261.939 243.064C270.601 243.43 272.187 249.652 272.187 257.46C272.187 274.698 281.194 275.257 286.575 275.59C286.83 275.606 287.077 275.622 287.315 275.638V275.272C282.538 274.923 282.545 269.343 282.556 261.934C282.556 261.585 282.557 261.233 282.557 260.876C282.557 250.506 273.041 244.04 264.135 242.942C278.11 241.451 283.903 234.909 285.86 225.815L272.333 192.77ZM378.018 190.482C394.366 190.482 401.686 210.734 401.686 234.28H402.052V190.116H371.552V190.482H378.018ZM233.635 275.15C236.319 275.15 238.515 273.564 238.515 256.362V209.27C238.515 192.922 236.319 190.482 233.635 190.482V190.116H248.275V256.362C248.275 273.564 250.471 275.15 253.155 275.15V275.516H233.635V275.15Z" fill="white" style="mix-blend-mode:difference"/>
</svg>
